<svg xmlns="http://www.w3.org/2000/svg" viewBox="0 0 128 128">
  <defs>
    <radialGradient id="g20" cx="50%" cy="45%" r="65%">
      <stop offset="0" stop-color="#eef6ff"/>
      <stop offset="1" stop-color="#2b8ae2"/>
    </radialGradient>
  </defs>
  <circle cx="64" cy="64" r="60" fill="url(#g20)"/>
  <circle cx="64" cy="64" r="52" fill="none" stroke="#ffffff" stroke-width="12"/>
  <g fill="#1f69b9">
    <rect x="60" y="6"  width="8" height="18" rx="4"/>
    <rect x="60" y="104" width="8" height="18" rx="4"/>
    <rect x="6"  y="60" width="18" height="8" rx="4"/>
    <rect x="104" y="60" width="18" height="8" rx="4"/>
    <rect x="92" y="15" width="8" height="18" rx="4" transform="rotate(45 96 24)"/>
    <rect x="92" y="95" width="8" height="18" rx="4" transform="rotate(135 96 104)"/>
    <rect x="28" y="15" width="8" height="18" rx="4" transform="rotate(-45 32 24)"/>
    <rect x="28" y="95" width="8" height="18" rx="4" transform="rotate(-135 32 104)"/>
  </g>
  <circle cx="64" cy="64" r="34" fill="#ffffff"/>
  <text x="64" y="68" text-anchor="middle" font-weight="800" font-size="26" fill="#1f69b9">$20</text>
  <text x="64" y="88" text-anchor="middle" font-weight="700" font-size="10" fill="#1f69b9">HS</text>
</svg>