<?xml version="1.0" encoding="UTF-8"?>
<svg xmlns="http://www.w3.org/2000/svg" viewBox="0 0 1600 760" width="1600" height="760">
  <defs>
    <linearGradient id="felt2" x1="0" y1="0" x2="0" y2="1">
      <stop offset="0%" stop-color="#103e6b"/>
      <stop offset="100%" stop-color="#0a2a4a"/>
    </linearGradient>
    <radialGradient id="glow2" cx="50%" cy="90%" r="90%">
      <stop offset="0%" stop-color="#2ad0ff" stop-opacity="0.18"/>
      <stop offset="75%" stop-color="#2ad0ff" stop-opacity="0.05"/>
      <stop offset="100%" stop-color="#2ad0ff" stop-opacity="0"/>
    </radialGradient>
  </defs>

  <!-- base rounded panel -->
  <rect x="0" y="0" width="1600" height="760" rx="26" fill="#0f1931"/>

  <!-- semi-circle felt for player side -->
  <path d="M 120 560 Q 800 370 1480 560 Q 1520 580 1520 620 Q 1520 650 1490 650 L 110 650 Q 80 650 80 620 Q 80 580 120 560 Z"
        fill="url(#felt2)"/>

  <!-- gold trim -->
  <path d="M 170 580 Q 800 400 1430 580" fill="none" stroke="#f4d24b" stroke-opacity="0.28" stroke-width="3"/>

  <!-- three betting rectangles (guides) -->
  <g opacity="0.35">
    <rect x="275" y="450" width="290" height="200" rx="16" fill="none" stroke="#9ad1c6" stroke-dasharray="10 10" stroke-width="3"/>
    <rect x="655" y="480" width="290" height="200" rx="16" fill="none" stroke="#9ad1c6" stroke-dasharray="10 10" stroke-width="3"/>
    <rect x="1035" y="450" width="290" height="200" rx="16" fill="none" stroke="#9ad1c6" stroke-dasharray="10 10" stroke-width="3"/>
  </g>

  <!-- soft glow -->
  <ellipse cx="800" cy="540" rx="720" ry="180" fill="url(#glow2)"/>
</svg>
